<svg xmlns="http://www.w3.org/2000/svg" viewBox="0 0 30 30"><path d="M22.51 11a.61.61 0 01-.61.61H8.1a.61.61 0 110-1.21h13.8a.6.6 0 01.61.6zm-4.65 3.9H8.11a.62.62 0 00-.62.61.61.61 0 00.62.6h9.75a.61.61 0 00.62-.6.62.62 0 00-.62-.61zm9.14-7v10.69a4 4 0 01-4.07 3.91H11.55l-4.07 3.36a.6.6 0 01-.63.09.57.57 0 01-.36-.53v-2.96h-.08A4 4 0 013 18.59V7.91A4 4 0 017.07 4h15.86A4 4 0 0127 7.91zm-1.2 0a2.81 2.81 0 00-2.87-2.75H7.07A2.81 2.81 0 004.2 7.91v10.68a2.82 2.82 0 002.87 2.75.58.58 0 01.6.57v2.25l3.25-2.69a.68.68 0 01.39-.13h11.6a2.82 2.82 0 002.87-2.75z"/></svg>