<svg xmlns="http://www.w3.org/2000/svg" viewBox="0 0 30 30"><path d="M15 3.5a8.37 8.37 0 00-5.86 2.35 7.79 7.79 0 00-2.43 5.66c-.11 4.57 4 9.92 6.46 13.12.41.53.83 1.08 1.16 1.53a.82.82 0 00.67.34.86.86 0 00.68-.34c.31-.45.72-1 1.16-1.54 2.45-3.2 6.56-8.54 6.45-13.11A8.16 8.16 0 0015 3.5zm.86 20.42c-.32.41-.61.78-.86 1.12-.25-.34-.54-.71-.86-1.12-2.36-3.08-6.32-8.23-6.22-12.41A6.65 6.65 0 0110 6.69a7.16 7.16 0 015-2 7 7 0 017.08 6.84c.09 4.16-3.86 9.31-6.22 12.39zm1.72-12.19A2.58 2.58 0 1115 9.14a2.58 2.58 0 012.58 2.59z"/></svg>