<svg xmlns="http://www.w3.org/2000/svg" viewBox="0 0 30 30"><path d="M25.93 10.46a8 8 0 00-.51-2.67 5.26 5.26 0 00-1.27-1.94 5.26 5.26 0 00-1.94-1.27 8 8 0 00-2.67-.51C18.36 4 18 4 15 4s-3.36 0-4.54.07a8 8 0 00-2.67.51 5.26 5.26 0 00-1.94 1.27 5.26 5.26 0 00-1.27 1.94 8 8 0 00-.51 2.67C4 11.64 4 12 4 15s0 3.36.07 4.54a8 8 0 00.51 2.67 5.26 5.26 0 001.27 1.94 5.26 5.26 0 001.94 1.27 8 8 0 002.67.51C11.64 26 12 26 15 26s3.36 0 4.54-.07a8 8 0 002.67-.51 5.67 5.67 0 003.21-3.21 8 8 0 00.51-2.67C26 18.36 26 18 26 15s0-3.36-.07-4.54zm-2 9a6.22 6.22 0 01-.37 2 3.74 3.74 0 01-2.09 2.09 6.22 6.22 0 01-2 .37C18.29 24 17.94 24 15 24s-3.29 0-4.44-.07a6.22 6.22 0 01-2.05-.37 3.34 3.34 0 01-1.26-.83 3.34 3.34 0 01-.83-1.26 6.22 6.22 0 01-.37-2C6 18.29 6 17.94 6 15s0-3.29.07-4.44a6.22 6.22 0 01.37-2.05 3.34 3.34 0 01.83-1.26 3.34 3.34 0 011.26-.83 6.22 6.22 0 012.05-.37C11.71 6 12.06 6 15 6s3.29 0 4.44.07a6.22 6.22 0 012 .37 3.34 3.34 0 011.26.83 3.34 3.34 0 01.83 1.26 6.22 6.22 0 01.47 2.03v8.88zM15 9.35A5.65 5.65 0 1020.65 15 5.65 5.65 0 0015 9.35zm0 9.32A3.67 3.67 0 1118.67 15 3.67 3.67 0 0115 18.67zm7.19-9.54a1.32 1.32 0 11-1.32-1.32 1.32 1.32 0 011.32 1.32z" /></svg>
